<mxfile host="app.diagrams.net" agent="Mozilla/5.0 (Windows NT 10.0; Win64; x64) AppleWebKit/537.36 (KHTML, like Gecko) Chrome/131.0.0.0 Safari/537.36 Edg/131.0.0.0" version="26.0.5">
  <diagram id="C5RBs43oDa-KdzZeNtuy" name="Page-1">
    <mxGraphModel dx="794" dy="634" grid="1" gridSize="10" guides="1" tooltips="1" connect="1" arrows="1" fold="1" page="1" pageScale="1" pageWidth="827" pageHeight="1169" math="0" shadow="0">
      <root>
        <mxCell id="WIyWlLk6GJQsqaUBKTNV-0" />
        <mxCell id="WIyWlLk6GJQsqaUBKTNV-1" parent="WIyWlLk6GJQsqaUBKTNV-0" />
        <mxCell id="p51dMxVrlk1s1oYyGSTb-1" value="" style="edgeStyle=orthogonalEdgeStyle;rounded=0;orthogonalLoop=1;jettySize=auto;html=1;" edge="1" parent="WIyWlLk6GJQsqaUBKTNV-1" source="WIyWlLk6GJQsqaUBKTNV-3" target="p51dMxVrlk1s1oYyGSTb-0">
          <mxGeometry relative="1" as="geometry" />
        </mxCell>
        <mxCell id="WIyWlLk6GJQsqaUBKTNV-3" value="开始" style="rounded=1;whiteSpace=wrap;html=1;fontSize=12;glass=0;strokeWidth=1;shadow=0;" parent="WIyWlLk6GJQsqaUBKTNV-1" vertex="1">
          <mxGeometry x="160" y="80" width="120" height="40" as="geometry" />
        </mxCell>
        <mxCell id="p51dMxVrlk1s1oYyGSTb-5" value="" style="edgeStyle=orthogonalEdgeStyle;rounded=0;orthogonalLoop=1;jettySize=auto;html=1;" edge="1" parent="WIyWlLk6GJQsqaUBKTNV-1" source="p51dMxVrlk1s1oYyGSTb-0" target="p51dMxVrlk1s1oYyGSTb-4">
          <mxGeometry relative="1" as="geometry" />
        </mxCell>
        <mxCell id="p51dMxVrlk1s1oYyGSTb-0" value="查找关键字直到叶子结点" style="rounded=0;whiteSpace=wrap;html=1;" vertex="1" parent="WIyWlLk6GJQsqaUBKTNV-1">
          <mxGeometry x="160" y="170" width="120" height="60" as="geometry" />
        </mxCell>
        <mxCell id="p51dMxVrlk1s1oYyGSTb-9" style="edgeStyle=orthogonalEdgeStyle;rounded=0;orthogonalLoop=1;jettySize=auto;html=1;entryX=0.5;entryY=0;entryDx=0;entryDy=0;" edge="1" parent="WIyWlLk6GJQsqaUBKTNV-1" source="p51dMxVrlk1s1oYyGSTb-2" target="p51dMxVrlk1s1oYyGSTb-7">
          <mxGeometry relative="1" as="geometry" />
        </mxCell>
        <mxCell id="p51dMxVrlk1s1oYyGSTb-10" style="edgeStyle=orthogonalEdgeStyle;rounded=0;orthogonalLoop=1;jettySize=auto;html=1;" edge="1" parent="WIyWlLk6GJQsqaUBKTNV-1" source="p51dMxVrlk1s1oYyGSTb-2" target="p51dMxVrlk1s1oYyGSTb-8">
          <mxGeometry relative="1" as="geometry" />
        </mxCell>
        <mxCell id="p51dMxVrlk1s1oYyGSTb-2" value="是否找到目标key" style="rhombus;whiteSpace=wrap;html=1;" vertex="1" parent="WIyWlLk6GJQsqaUBKTNV-1">
          <mxGeometry x="165" y="370" width="110" height="80" as="geometry" />
        </mxCell>
        <mxCell id="p51dMxVrlk1s1oYyGSTb-6" value="" style="edgeStyle=orthogonalEdgeStyle;rounded=0;orthogonalLoop=1;jettySize=auto;html=1;" edge="1" parent="WIyWlLk6GJQsqaUBKTNV-1" source="p51dMxVrlk1s1oYyGSTb-4" target="p51dMxVrlk1s1oYyGSTb-2">
          <mxGeometry relative="1" as="geometry" />
        </mxCell>
        <mxCell id="p51dMxVrlk1s1oYyGSTb-4" value="在叶子结点中查找目标key" style="rounded=0;whiteSpace=wrap;html=1;" vertex="1" parent="WIyWlLk6GJQsqaUBKTNV-1">
          <mxGeometry x="160" y="280" width="120" height="60" as="geometry" />
        </mxCell>
        <mxCell id="p51dMxVrlk1s1oYyGSTb-14" style="edgeStyle=orthogonalEdgeStyle;rounded=0;orthogonalLoop=1;jettySize=auto;html=1;entryX=0;entryY=0.5;entryDx=0;entryDy=0;" edge="1" parent="WIyWlLk6GJQsqaUBKTNV-1" source="p51dMxVrlk1s1oYyGSTb-7" target="p51dMxVrlk1s1oYyGSTb-12">
          <mxGeometry relative="1" as="geometry" />
        </mxCell>
        <mxCell id="p51dMxVrlk1s1oYyGSTb-7" value="返回对应的value" style="rounded=0;whiteSpace=wrap;html=1;" vertex="1" parent="WIyWlLk6GJQsqaUBKTNV-1">
          <mxGeometry x="40" y="460" width="120" height="60" as="geometry" />
        </mxCell>
        <mxCell id="p51dMxVrlk1s1oYyGSTb-13" style="edgeStyle=orthogonalEdgeStyle;rounded=0;orthogonalLoop=1;jettySize=auto;html=1;entryX=1;entryY=0.5;entryDx=0;entryDy=0;" edge="1" parent="WIyWlLk6GJQsqaUBKTNV-1" source="p51dMxVrlk1s1oYyGSTb-8" target="p51dMxVrlk1s1oYyGSTb-12">
          <mxGeometry relative="1" as="geometry" />
        </mxCell>
        <mxCell id="p51dMxVrlk1s1oYyGSTb-8" value="返回空指针" style="rounded=0;whiteSpace=wrap;html=1;" vertex="1" parent="WIyWlLk6GJQsqaUBKTNV-1">
          <mxGeometry x="280" y="460" width="120" height="60" as="geometry" />
        </mxCell>
        <mxCell id="p51dMxVrlk1s1oYyGSTb-12" value="结束" style="rounded=1;whiteSpace=wrap;html=1;fontSize=12;glass=0;strokeWidth=1;shadow=0;" vertex="1" parent="WIyWlLk6GJQsqaUBKTNV-1">
          <mxGeometry x="160" y="570" width="120" height="40" as="geometry" />
        </mxCell>
        <mxCell id="p51dMxVrlk1s1oYyGSTb-15" value="是" style="text;html=1;align=center;verticalAlign=middle;resizable=0;points=[];autosize=1;strokeColor=none;fillColor=none;" vertex="1" parent="WIyWlLk6GJQsqaUBKTNV-1">
          <mxGeometry x="110" y="378" width="40" height="30" as="geometry" />
        </mxCell>
        <mxCell id="p51dMxVrlk1s1oYyGSTb-16" value="否" style="text;html=1;align=center;verticalAlign=middle;resizable=0;points=[];autosize=1;strokeColor=none;fillColor=none;" vertex="1" parent="WIyWlLk6GJQsqaUBKTNV-1">
          <mxGeometry x="290" y="378" width="40" height="30" as="geometry" />
        </mxCell>
        <mxCell id="p51dMxVrlk1s1oYyGSTb-18" value="&lt;font style=&quot;font-size: 24px;&quot;&gt;单一查找&lt;/font&gt;" style="text;html=1;align=center;verticalAlign=middle;resizable=0;points=[];autosize=1;strokeColor=none;fillColor=none;" vertex="1" parent="WIyWlLk6GJQsqaUBKTNV-1">
          <mxGeometry x="10" y="40" width="120" height="40" as="geometry" />
        </mxCell>
        <mxCell id="p51dMxVrlk1s1oYyGSTb-19" value="&lt;font style=&quot;font-size: 24px;&quot;&gt;范围查找&lt;/font&gt;" style="text;html=1;align=center;verticalAlign=middle;resizable=0;points=[];autosize=1;strokeColor=none;fillColor=none;" vertex="1" parent="WIyWlLk6GJQsqaUBKTNV-1">
          <mxGeometry x="430" y="40" width="120" height="40" as="geometry" />
        </mxCell>
        <mxCell id="p51dMxVrlk1s1oYyGSTb-22" value="" style="edgeStyle=orthogonalEdgeStyle;rounded=0;orthogonalLoop=1;jettySize=auto;html=1;" edge="1" parent="WIyWlLk6GJQsqaUBKTNV-1" source="p51dMxVrlk1s1oYyGSTb-20" target="p51dMxVrlk1s1oYyGSTb-21">
          <mxGeometry relative="1" as="geometry" />
        </mxCell>
        <mxCell id="p51dMxVrlk1s1oYyGSTb-20" value="开始" style="rounded=1;whiteSpace=wrap;html=1;fontSize=12;glass=0;strokeWidth=1;shadow=0;" vertex="1" parent="WIyWlLk6GJQsqaUBKTNV-1">
          <mxGeometry x="440" y="80" width="120" height="40" as="geometry" />
        </mxCell>
        <mxCell id="p51dMxVrlk1s1oYyGSTb-24" value="" style="edgeStyle=orthogonalEdgeStyle;rounded=0;orthogonalLoop=1;jettySize=auto;html=1;" edge="1" parent="WIyWlLk6GJQsqaUBKTNV-1" source="p51dMxVrlk1s1oYyGSTb-21">
          <mxGeometry relative="1" as="geometry">
            <mxPoint x="500" y="280" as="targetPoint" />
          </mxGeometry>
        </mxCell>
        <mxCell id="p51dMxVrlk1s1oYyGSTb-21" value="查找low的关键字,只到叶子结点" style="rounded=0;whiteSpace=wrap;html=1;" vertex="1" parent="WIyWlLk6GJQsqaUBKTNV-1">
          <mxGeometry x="440" y="170" width="120" height="60" as="geometry" />
        </mxCell>
        <mxCell id="p51dMxVrlk1s1oYyGSTb-28" value="" style="edgeStyle=orthogonalEdgeStyle;rounded=0;orthogonalLoop=1;jettySize=auto;html=1;" edge="1" parent="WIyWlLk6GJQsqaUBKTNV-1" source="p51dMxVrlk1s1oYyGSTb-25" target="p51dMxVrlk1s1oYyGSTb-26">
          <mxGeometry relative="1" as="geometry" />
        </mxCell>
        <mxCell id="p51dMxVrlk1s1oYyGSTb-73" value="" style="edgeStyle=orthogonalEdgeStyle;rounded=0;orthogonalLoop=1;jettySize=auto;html=1;" edge="1" parent="WIyWlLk6GJQsqaUBKTNV-1" source="p51dMxVrlk1s1oYyGSTb-25" target="p51dMxVrlk1s1oYyGSTb-72">
          <mxGeometry relative="1" as="geometry" />
        </mxCell>
        <mxCell id="p51dMxVrlk1s1oYyGSTb-25" value="是否能在叶子节&lt;div&gt;点找到key&amp;gt;=low&lt;/div&gt;" style="rhombus;whiteSpace=wrap;html=1;" vertex="1" parent="WIyWlLk6GJQsqaUBKTNV-1">
          <mxGeometry x="445" y="280" width="110" height="80" as="geometry" />
        </mxCell>
        <mxCell id="p51dMxVrlk1s1oYyGSTb-33" value="" style="edgeStyle=orthogonalEdgeStyle;rounded=0;orthogonalLoop=1;jettySize=auto;html=1;" edge="1" parent="WIyWlLk6GJQsqaUBKTNV-1" source="p51dMxVrlk1s1oYyGSTb-26" target="p51dMxVrlk1s1oYyGSTb-32">
          <mxGeometry relative="1" as="geometry" />
        </mxCell>
        <mxCell id="p51dMxVrlk1s1oYyGSTb-26" value="当前叶子节点&lt;div&gt;无key符合&lt;/div&gt;" style="rounded=0;whiteSpace=wrap;html=1;" vertex="1" parent="WIyWlLk6GJQsqaUBKTNV-1">
          <mxGeometry x="440" y="482" width="120" height="60" as="geometry" />
        </mxCell>
        <mxCell id="p51dMxVrlk1s1oYyGSTb-30" value="否" style="text;html=1;align=center;verticalAlign=middle;resizable=0;points=[];autosize=1;strokeColor=none;fillColor=none;" vertex="1" parent="WIyWlLk6GJQsqaUBKTNV-1">
          <mxGeometry x="460" y="358" width="40" height="30" as="geometry" />
        </mxCell>
        <mxCell id="p51dMxVrlk1s1oYyGSTb-31" value="是" style="text;html=1;align=center;verticalAlign=middle;resizable=0;points=[];autosize=1;strokeColor=none;fillColor=none;" vertex="1" parent="WIyWlLk6GJQsqaUBKTNV-1">
          <mxGeometry x="555" y="290" width="40" height="30" as="geometry" />
        </mxCell>
        <mxCell id="p51dMxVrlk1s1oYyGSTb-35" value="" style="edgeStyle=orthogonalEdgeStyle;rounded=0;orthogonalLoop=1;jettySize=auto;html=1;" edge="1" parent="WIyWlLk6GJQsqaUBKTNV-1" source="p51dMxVrlk1s1oYyGSTb-32" target="p51dMxVrlk1s1oYyGSTb-34">
          <mxGeometry relative="1" as="geometry" />
        </mxCell>
        <mxCell id="p51dMxVrlk1s1oYyGSTb-38" value="" style="edgeStyle=orthogonalEdgeStyle;rounded=0;orthogonalLoop=1;jettySize=auto;html=1;" edge="1" parent="WIyWlLk6GJQsqaUBKTNV-1" source="p51dMxVrlk1s1oYyGSTb-32">
          <mxGeometry relative="1" as="geometry">
            <mxPoint x="820" y="512" as="targetPoint" />
          </mxGeometry>
        </mxCell>
        <mxCell id="p51dMxVrlk1s1oYyGSTb-32" value="是否下一个叶&lt;div&gt;子节点为空&lt;/div&gt;" style="rhombus;whiteSpace=wrap;html=1;" vertex="1" parent="WIyWlLk6GJQsqaUBKTNV-1">
          <mxGeometry x="660" y="472" width="110" height="80" as="geometry" />
        </mxCell>
        <mxCell id="p51dMxVrlk1s1oYyGSTb-34" value="结束" style="rounded=1;whiteSpace=wrap;html=1;fontSize=12;glass=0;strokeWidth=1;shadow=0;" vertex="1" parent="WIyWlLk6GJQsqaUBKTNV-1">
          <mxGeometry x="655" y="627" width="120" height="40" as="geometry" />
        </mxCell>
        <mxCell id="p51dMxVrlk1s1oYyGSTb-36" value="是" style="text;html=1;align=center;verticalAlign=middle;resizable=0;points=[];autosize=1;strokeColor=none;fillColor=none;" vertex="1" parent="WIyWlLk6GJQsqaUBKTNV-1">
          <mxGeometry x="670" y="552" width="40" height="30" as="geometry" />
        </mxCell>
        <mxCell id="p51dMxVrlk1s1oYyGSTb-39" value="否" style="text;html=1;align=center;verticalAlign=middle;resizable=0;points=[];autosize=1;strokeColor=none;fillColor=none;" vertex="1" parent="WIyWlLk6GJQsqaUBKTNV-1">
          <mxGeometry x="765" y="477" width="40" height="30" as="geometry" />
        </mxCell>
        <mxCell id="p51dMxVrlk1s1oYyGSTb-46" style="edgeStyle=orthogonalEdgeStyle;rounded=0;orthogonalLoop=1;jettySize=auto;html=1;entryX=1;entryY=0.5;entryDx=0;entryDy=0;" edge="1" parent="WIyWlLk6GJQsqaUBKTNV-1" source="p51dMxVrlk1s1oYyGSTb-41" target="p51dMxVrlk1s1oYyGSTb-34">
          <mxGeometry relative="1" as="geometry">
            <Array as="points">
              <mxPoint x="875" y="647" />
            </Array>
          </mxGeometry>
        </mxCell>
        <mxCell id="p51dMxVrlk1s1oYyGSTb-64" style="edgeStyle=orthogonalEdgeStyle;rounded=0;orthogonalLoop=1;jettySize=auto;html=1;exitX=1;exitY=0.5;exitDx=0;exitDy=0;entryX=1;entryY=0.5;entryDx=0;entryDy=0;" edge="1" parent="WIyWlLk6GJQsqaUBKTNV-1" source="p51dMxVrlk1s1oYyGSTb-41" target="p51dMxVrlk1s1oYyGSTb-57">
          <mxGeometry relative="1" as="geometry" />
        </mxCell>
        <mxCell id="p51dMxVrlk1s1oYyGSTb-41" value="是否当前key&lt;div&gt;大于high&lt;/div&gt;" style="rhombus;whiteSpace=wrap;html=1;" vertex="1" parent="WIyWlLk6GJQsqaUBKTNV-1">
          <mxGeometry x="820" y="470" width="110" height="80" as="geometry" />
        </mxCell>
        <mxCell id="p51dMxVrlk1s1oYyGSTb-47" value="是" style="text;html=1;align=center;verticalAlign=middle;resizable=0;points=[];autosize=1;strokeColor=none;fillColor=none;" vertex="1" parent="WIyWlLk6GJQsqaUBKTNV-1">
          <mxGeometry x="840" y="552" width="40" height="30" as="geometry" />
        </mxCell>
        <mxCell id="p51dMxVrlk1s1oYyGSTb-68" style="edgeStyle=orthogonalEdgeStyle;rounded=0;orthogonalLoop=1;jettySize=auto;html=1;entryX=0.5;entryY=0;entryDx=0;entryDy=0;exitX=0;exitY=0.5;exitDx=0;exitDy=0;" edge="1" parent="WIyWlLk6GJQsqaUBKTNV-1" source="p51dMxVrlk1s1oYyGSTb-50" target="p51dMxVrlk1s1oYyGSTb-32">
          <mxGeometry relative="1" as="geometry" />
        </mxCell>
        <mxCell id="p51dMxVrlk1s1oYyGSTb-70" style="edgeStyle=orthogonalEdgeStyle;rounded=0;orthogonalLoop=1;jettySize=auto;html=1;exitX=1;exitY=0.5;exitDx=0;exitDy=0;entryX=0.5;entryY=0;entryDx=0;entryDy=0;" edge="1" parent="WIyWlLk6GJQsqaUBKTNV-1" source="p51dMxVrlk1s1oYyGSTb-50" target="p51dMxVrlk1s1oYyGSTb-41">
          <mxGeometry relative="1" as="geometry" />
        </mxCell>
        <mxCell id="p51dMxVrlk1s1oYyGSTb-50" value="是否下一个key为空" style="rhombus;whiteSpace=wrap;html=1;" vertex="1" parent="WIyWlLk6GJQsqaUBKTNV-1">
          <mxGeometry x="740" y="380" width="110" height="80" as="geometry" />
        </mxCell>
        <mxCell id="p51dMxVrlk1s1oYyGSTb-67" style="edgeStyle=orthogonalEdgeStyle;rounded=0;orthogonalLoop=1;jettySize=auto;html=1;" edge="1" parent="WIyWlLk6GJQsqaUBKTNV-1" source="p51dMxVrlk1s1oYyGSTb-57" target="p51dMxVrlk1s1oYyGSTb-50">
          <mxGeometry relative="1" as="geometry" />
        </mxCell>
        <mxCell id="p51dMxVrlk1s1oYyGSTb-57" value="将当前value加入结果" style="rounded=0;whiteSpace=wrap;html=1;" vertex="1" parent="WIyWlLk6GJQsqaUBKTNV-1">
          <mxGeometry x="735" y="290" width="120" height="60" as="geometry" />
        </mxCell>
        <mxCell id="p51dMxVrlk1s1oYyGSTb-65" value="否" style="text;html=1;align=center;verticalAlign=middle;resizable=0;points=[];autosize=1;strokeColor=none;fillColor=none;" vertex="1" parent="WIyWlLk6GJQsqaUBKTNV-1">
          <mxGeometry x="920" y="460" width="40" height="30" as="geometry" />
        </mxCell>
        <mxCell id="p51dMxVrlk1s1oYyGSTb-69" value="是" style="text;html=1;align=center;verticalAlign=middle;resizable=0;points=[];autosize=1;strokeColor=none;fillColor=none;" vertex="1" parent="WIyWlLk6GJQsqaUBKTNV-1">
          <mxGeometry x="700" y="388" width="40" height="30" as="geometry" />
        </mxCell>
        <mxCell id="p51dMxVrlk1s1oYyGSTb-71" value="否" style="text;html=1;align=center;verticalAlign=middle;resizable=0;points=[];autosize=1;strokeColor=none;fillColor=none;" vertex="1" parent="WIyWlLk6GJQsqaUBKTNV-1">
          <mxGeometry x="840" y="388" width="40" height="30" as="geometry" />
        </mxCell>
        <mxCell id="p51dMxVrlk1s1oYyGSTb-74" value="" style="edgeStyle=orthogonalEdgeStyle;rounded=0;orthogonalLoop=1;jettySize=auto;html=1;" edge="1" parent="WIyWlLk6GJQsqaUBKTNV-1" source="p51dMxVrlk1s1oYyGSTb-72" target="p51dMxVrlk1s1oYyGSTb-57">
          <mxGeometry relative="1" as="geometry" />
        </mxCell>
        <mxCell id="p51dMxVrlk1s1oYyGSTb-76" style="edgeStyle=orthogonalEdgeStyle;rounded=0;orthogonalLoop=1;jettySize=auto;html=1;entryX=1;entryY=0.5;entryDx=0;entryDy=0;exitX=0.5;exitY=0;exitDx=0;exitDy=0;" edge="1" parent="WIyWlLk6GJQsqaUBKTNV-1" source="p51dMxVrlk1s1oYyGSTb-72" target="p51dMxVrlk1s1oYyGSTb-34">
          <mxGeometry relative="1" as="geometry">
            <Array as="points">
              <mxPoint x="645" y="260" />
              <mxPoint x="985" y="260" />
              <mxPoint x="985" y="647" />
            </Array>
          </mxGeometry>
        </mxCell>
        <mxCell id="p51dMxVrlk1s1oYyGSTb-72" value="是否当前key&lt;div&gt;大于high&lt;/div&gt;" style="rhombus;whiteSpace=wrap;html=1;" vertex="1" parent="WIyWlLk6GJQsqaUBKTNV-1">
          <mxGeometry x="590" y="280" width="110" height="80" as="geometry" />
        </mxCell>
        <mxCell id="p51dMxVrlk1s1oYyGSTb-75" value="否" style="text;html=1;align=center;verticalAlign=middle;resizable=0;points=[];autosize=1;strokeColor=none;fillColor=none;" vertex="1" parent="WIyWlLk6GJQsqaUBKTNV-1">
          <mxGeometry x="695" y="290" width="40" height="30" as="geometry" />
        </mxCell>
        <mxCell id="p51dMxVrlk1s1oYyGSTb-77" value="是" style="text;html=1;align=center;verticalAlign=middle;resizable=0;points=[];autosize=1;strokeColor=none;fillColor=none;" vertex="1" parent="WIyWlLk6GJQsqaUBKTNV-1">
          <mxGeometry x="645" y="230" width="40" height="30" as="geometry" />
        </mxCell>
      </root>
    </mxGraphModel>
  </diagram>
</mxfile>
